:SAMPLES-PER-SECOND 30
:FULLY-SPECIFIED
:DEGREES
182
root  24.4274 38.7969 -23.7457 32.9901 77.9273 34.9393
RightUpLeg  -27.5398 -11.5363 -10.8469
RightLeg  21.2836 -5.35235 -2.38391
RightFoot  1.89539 -0.557965 4.93357
RightToes  0.000482159 0.542163 -0.142577
Spine  26.8064 -1.56187 -3.51609
Spine1  8.4217 -1.46447 -3.43647
HEad  0.543177 4.52673 -7.13246
LeftShoulder1  8.9742 -15.1229 -41.8124
LeftArm  -3.00643 -10.7274 -27.0716
LeftForeArm  0.621219 -51.4519 -14.1074
LeftHand  -0.25398 0.0180481 5.50724
RightShoulder  5.09551 10.0489 31.6525
RightArm  -9.82821 -2.08252 23.0184
RightForeArm  -26.1819 64.9315 27.8322
RightHand  0.288285 -10.5866 -7.79068
LeftUpLeg  -11.3577 14.2009 -11.8793
LeftLeg  24.7509 6.23397 3.48239
LeftFoot  -11.7068 0.0899927 5.5537
LeftToes  1.06248e-005 4.65854e-005 -8.185e-006
183
root  25.765 38.5742 -23.1087 44.6655 79.4722 45.823
RightUpLeg  -26.6182 -14.242 -11.4351
RightLeg  8.40203 -6.37461 0.345568
RightFoot  0.34593 -0.682757 6.68687
RightToes  0.000482159 0.542163 -0.142577
Spine  27.7204 -2.00233 -3.84755
Spine1  8.27729 -2.32309 -2.44871
HEad  0.0485063 3.47731 -7.12722
LeftShoulder1  9.09582 -15.4146 -41.718
LeftArm  -1.60643 -13.2879 -27.9015
LeftForeArm  -1.34457 -47.9248 -12.5327
LeftHand  -0.25398 0.0180481 5.50724
RightShoulder  5.00262 9.95828 31.212
RightArm  -10.1122 -1.37628 22.965
RightForeArm  -26.7438 63.5881 26.0846
RightHand  0.226343 -10.0213 -7.14567
LeftUpLeg  -10.9366 11.5198 -11.8868
LeftLeg  27.2971 6.82395 4.16458
LeftFoot  -14.0465 0.211547 5.25424
LeftToes  1.06248e-005 4.65854e-005 -8.185e-006
184
root  27.069 38.2305 -22.4086 60.652 80.5553 61.1691
RightUpLeg  -25.4325 -13.2069 -13.5993
RightLeg  0.106213 -10.1246 2.88577
RightFoot  -0.956614 -0.659115 7.13636
RightToes  0.000482159 0.542163 -0.142577
Spine  28.5454 -2.15925 -4.36265
Spine1  8.72299 -3.17785 -0.853135
HEad  -0.429938 2.07997 -6.99922
LeftShoulder1  9.43312 -15.94 -42.1195
LeftArm  -0.144554 -16.1388 -28.2432
LeftForeArm  -2.94089 -43.9398 -10.9817
LeftHand  -0.25398 0.0180481 5.50724
RightShoulder  4.89371 9.8484 30.6971
RightArm  -10.448 -0.566846 23.0608
RightForeArm  -27.6183 61.7522 24.0004
RightHand  0.145165 -9.02785 -6.39108
LeftUpLeg  -10.9355 9.13642 -11.7767
LeftLeg  30.7977 6.6668 4.62178
LeftFoot  -16.7945 0.308081 4.50591
LeftToes  1.06248e-005 4.65854e-005 -8.185e-006
185
root  28.3043 37.808 -21.6781 76.8968 80.8715 76.792
RightUpLeg  -26.5875 -13.7232 -13.8609
RightLeg  -0.219322 -9.55804 2.84107
RightFoot  2.38226 -0.718007 6.15926
RightToes  0.000482159 0.542163 -0.142577
Spine  29.6875 -2.15478 -4.28773
Spine1  9.34406 -3.70479 0.418831
HEad  -1.16204 0.312869 -6.54397
LeftShoulder1  10.0224 -16.6523 -43.2354
LeftArm  1.42501 -19.454 -27.7828
LeftForeArm  -4.69595 -39.7105 -9.58095
LeftHand  -0.25398 0.0180481 5.50724
RightShoulder  4.8203 9.77763 30.3355
RightArm  -10.7179 0.484857 23.0759
RightForeArm  -28.8909 59.5019 21.8275
RightHand  0.0879952 -8.22906 -5.71201
LeftUpLeg  -12.0299 7.35654 -11.1761
LeftLeg  35.9182 5.55971 4.66359
LeftFoot  -18.8243 0.180604 0.986258
LeftToes  1.06248e-005 4.65854e-005 -8.185e-006
186
root  29.4447 37.3523 -20.9976 88.9497 81.5341 88.1832
RightUpLeg  -29.8809 -14.3815 -13.024
RightLeg  5.96566 -7.60323 2.29018
RightFoot  10.1938 -0.687741 4.03665
RightToes  0.000482159 0.542163 -0.142577
Spine  31.7852 -2.74445 -1.87932
Spine1  9.41082 -3.62673 -0.263857
HEad  -2.60017 -1.5108 -5.92257
LeftShoulder1  10.7152 -17.3625 -44.7261
LeftArm  2.96503 -23.5876 -26.9737
LeftForeArm  -7.27314 -35.2102 -8.3328
LeftHand  -0.25398 0.0180481 5.50724
RightShoulder  4.87101 9.90109 30.3784
RightArm  -10.978 2.21931 22.7262
RightForeArm  -30.4388 56.679 19.5571
RightHand  0.0385748 -7.22069 -5.35652
LeftUpLeg  -15.2831 6.84224 -9.51009
LeftLeg  44.1999 4.96067 5.6133
LeftFoot  -17.5833 -0.0282781 -2.62872
LeftToes  1.06248e-005 4.65854e-005 -8.185e-006
187
root  30.4314 36.9323 -20.3895 97.8553 83.4097 96.4816
RightUpLeg  -33.7958 -17.6003 -9.00192
RightLeg  12.9974 -3.17565 2.46111
RightFoot  16.804 -0.170919 1.12387
RightToes  0.000482159 0.542163 -0.142577
Spine  35.1422 -3.97494 2.3427
Spine1  8.953 -3.13689 -2.18549
HEad  -5.03001 -2.75915 -5.3407
LeftShoulder1  11.3012 -17.9961 -45.8233
LeftArm  3.57162 -28.5711 -26.5705
LeftForeArm  -9.92739 -30.3336 -7.13228
LeftHand  -0.25398 0.0180481 5.50724
RightShoulder  5.10636 10.4187 30.7202
RightArm  -11.1744 5.8919 21.9391
RightForeArm  -32.2776 52.2401 16.6884
RightHand  -0.0313105 -5.4591 -4.868
LeftUpLeg  -20.9217 8.05369 -6.78228
LeftLeg  55.0296 5.35435 8.73126
LeftFoot  -11.5489 0.0332374 -1.84201
LeftToes  1.06248e-005 4.65854e-005 -8.185e-006
188
root  31.1877 36.635 -19.8078 106.393 85.8731 104.428
RightUpLeg  -38.0625 -22.9448 -1.43678
RightLeg  19.0944 2.96203 2.03806
RightFoot  17.1407 0.750519 -2.5424
RightToes  0.000482159 0.542163 -0.142577
Spine  39.3602 -4.8973 5.51496
Spine1  8.59373 -2.86977 -2.49345
HEad  -8.5569 -2.93372 -4.92101
LeftShoulder1  11.619 -18.5809 -45.8606
LeftArm  2.015 -33.9752 -26.6565
LeftForeArm  -11.1838 -25.4548 -6.03097
LeftHand  -0.25398 0.0180481 5.50724
RightShoulder  5.44469 11.3429 30.7181
RightArm  -11.109 12.4805 20.9727
RightForeArm  -34.2801 45.4817 13.3383
RightHand  -0.0912409 -3.17549 -3.72513
LeftUpLeg  -27.7629 10.342 -4.1077
LeftLeg  64.3342 5.01383 11.8245
LeftFoot  -4.25807 -0.12908 2.55933
LeftToes  1.06248e-005 4.65854e-005 -8.185e-006
189
root  31.7893 36.5676 -19.2086 116.641 87.2804 113.588
RightUpLeg  -40.7494 -23.919 2.83805
RightLeg  22.6984 4.02066 1.57527
RightFoot  14.3196 1.36324 -5.52671
RightToes  0.000482159 0.542163 -0.142577
Spine  43.8428 -4.89836 5.84385
Spine1  8.61134 -3.18008 -0.622304
HEad  -12.9778 -2.23868 -4.77522
LeftShoulder1  11.5696 -19.1292 -44.4959
LeftArm  -2.46674 -39.2899 -26.6535
LeftForeArm  -10.1602 -21.1195 -5.62063
LeftHand  -0.25398 0.0180481 5.50724
RightShoulder  5.74387 12.4664 29.9944
RightArm  -11.0466 20.9433 19.9201
RightForeArm  -35.9241 37.5933 10.3942
RightHand  -0.0865618 -0.998793 -2.09006
LeftUpLeg  -34.3926 12.6526 -3.58168
LeftLeg  68.2418 4.10575 11.9958
LeftFoot  -1.37318 -0.491311 5.87497
LeftToes  1.06248e-005 4.65854e-005 -8.185e-006
190
root  32.4002 36.7392 -18.6315 130.232 87.0743 125.066
RightUpLeg  -42.4643 -23.5669 4.23435
RightLeg  23.7002 3.42731 1.4148
RightFoot  12.9845 1.54532 -6.73177
RightToes  0.000482159 0.542163 -0.142577
Spine  47.8964 -4.83822 5.01008
Spine1  8.3527 -3.7271 0.865776
HEad  -17.6325 -1.65588 -4.74723
LeftShoulder1  11.2793 -19.834 -41.9148
LeftArm  -9.24952 -44.3642 -26.0109
LeftForeArm  -7.19691 -17.1556 -6.46247
LeftHand  -0.25398 0.0180481 5.50724
RightShoulder  5.98001 13.5093 29.1481
RightArm  -11.9774 28.7531 18.1606
RightForeArm  -36.7107 30.7304 8.36599
RightHand  -0.0155499 0.624855 -0.350832
LeftUpLeg  -40.2594 14.251 -5.84195
LeftLeg  65.707 3.7973 9.88019
LeftFoot  -2.92659 -0.423272 5.91444
LeftToes  1.06248e-005 4.65854e-005 -8.185e-006
191
root  33.0479 36.9928 -18.1416 143.871 86.2143 135.594
RightUpLeg  -44.9151 -23.9919 5.73099
RightLeg  23.7094 3.31363 1.36858
RightFoot  12.8679 1.61525 -7.10275
RightToes  0.000482159 0.542163 -0.142577
Spine  51.0369 -5.37682 5.33804
Spine1  7.98806 -3.81791 0.658856
HEad  -21.9935 -2.05921 -4.48105
LeftShoulder1  11.1231 -21.0754 -38.9914
LeftArm  -14.872 -49.72 -24.4844
LeftForeArm  -5.39213 -13.11 -7.34858
LeftHand  -0.25398 0.0180481 5.50724
RightShoulder  6.14369 14.2554 28.5756
RightArm  -14.715 34.5773 14.9723
RightForeArm  -36.783 25.6148 7.11462
RightHand  0.095021 1.60329 1.42366
LeftUpLeg  -45.3559 15.2248 -9.46227
LeftLeg  57.8863 3.65532 6.82669
LeftFoot  -5.35126 -0.119077 2.81066
LeftToes  1.06248e-005 4.65854e-005 -8.185e-006
192
root  33.7053 37.2114 -17.7266 152.019 85.7744 140.279
RightUpLeg  -47.7578 -24.0449 7.70509
RightLeg  23.5823 3.04744 1.23277
RightFoot  11.9913 1.6999 -7.81922
RightToes  0.000482159 0.542163 -0.142577
Spine  53.3308 -5.76034 6.38898
Spine1  8.29919 -3.19613 -0.109459
HEad  -25.8973 -3.12204 -4.06172
LeftShoulder1  11.2507 -22.733 -36.6644
LeftArm  -20.0375 -55.6076 -21.7035
LeftForeArm  -4.20462 -9.0513 -7.81359
LeftHand  -0.25398 0.0180481 5.50724
RightShoulder  6.13389 14.7511 27.5486
RightArm  -19.6905 38.9581 10.539
RightForeArm  -35.9729 21.1689 6.79703
RightHand  0.224224 2.37108 3.12016
LeftUpLeg  -49.2692 16.601 -13.3748
LeftLeg  46.6134 1.8703 2.65464
LeftFoot  -6.12134 0.157379 -2.44637
LeftToes  1.06248e-005 4.65854e-005 -8.185e-006
193
root  34.3737 37.276 -17.4087 156.796 86.6503 141.811
RightUpLeg  -50.6135 -23.0285 10.0854
RightLeg  24.053 3.10658 1.29364
RightFoot  10.5811 1.75826 -8.67612
RightToes  0.000482159 0.542163 -0.142577
Spine  55.9504 -5.63522 7.26419
Spine1  7.56505 -2.17411 -0.928424
HEad  -28.5735 -3.62442 -3.96729
LeftShoulder1  11.3731 -23.9143 -35.2667
LeftArm  -24.5273 -60.6446 -17.7725
LeftForeArm  -4.08556 -6.25399 -7.61372
LeftHand  -0.25398 0.0180481 5.50724
RightShoulder  6.04991 15.3207 26.0305
RightArm  -26.8942 42.3029 5.60745
RightForeArm  -32.8606 16.3364 7.73166
RightHand  0.372984 3.70731 4.42571
LeftUpLeg  -51.8275 19.0452 -17.198
LeftLeg  34.4447 -3.21379 -1.96493
LeftFoot  -4.09707 0.530765 -7.76302
LeftToes  1.06248e-005 4.65854e-005 -8.185e-006
